<svg xmlns="http://www.w3.org/2000/svg" xmlns:xlink="http://www.w3.org/1999/xlink" viewBox="0,0,256,256" width="500px" height="500px"><g fill="#ffffff" fill-rule="nonzero" stroke="none" stroke-width="1" stroke-linecap="butt" stroke-linejoin="miter" stroke-miterlimit="10" stroke-dasharray="" stroke-dashoffset="0" font-family="none" font-weight="none" font-size="none" text-anchor="none" style="mix-blend-mode: normal"><g transform="scale(5.12,5.12)"><path d="M23.8125,3.00781l-16.91406,31.37891l12.39453,-5.3125zM26.1875,3.00781l3.74219,21.50781l6.36328,-2.73047zM25,7.84375l-3.51562,20.28906l6.55859,-2.80859zM37.24609,23.55078l-6.96484,2.98438l2.16797,12.46484h13.14453zM28.39063,27.34766l-7.3125,3.13672l-1.48047,8.51563h10.82422zM18.88281,31.42188l-8.78125,3.76563l0.32031,3.8125h7.14453zM8.16406,36.01563l-2.79688,1.19922l-0.96094,1.78516h4.00781zM4.53125,41l4.5,5.39844l-0.45312,-5.39844zM10.58984,41l0.51172,6.16797l4.92969,0.70313l1.19141,-6.87109zM32.79688,41l1.19141,6.87109l5.18359,-0.74219l-1.01953,-6.12891zM40.17969,41l0.88281,5.28516l4.40625,-5.28516z"></path></g></g></svg>